<svg xmlns="http://www.w3.org/2000/svg" width="67.46" height="47.877" viewBox="0 0 67.46 47.877">
  <path id="Icon_awesome-money-check-alt" data-name="Icon awesome-money-check-alt" d="M55.582,3.76C43.186-9.806,14.916-2.577,1.361,6.576s-5.233,25.349,9.036,33.8,48.04,0,48.04,0S67.979,17.326,55.582,3.76ZM17.056,29.8v1.419a.709.709,0,0,1-.713.7H14.916a.709.709,0,0,1-.713-.7V29.788a5.148,5.148,0,0,1-2.8-1,.7.7,0,0,1-.051-1.069l1.048-.987a.739.739,0,0,1,.9-.064A2.168,2.168,0,0,0,14.449,27h2.507a1.112,1.112,0,0,0,1.052-1.161,1.15,1.15,0,0,0-.782-1.12l-4.013-1.188A3.989,3.989,0,0,1,10.4,19.708,3.943,3.943,0,0,1,14.2,15.741V14.322a.709.709,0,0,1,.713-.7h1.427a.709.709,0,0,1,.713.7v1.434a5.141,5.141,0,0,1,2.8,1,.7.7,0,0,1,.051,1.069l-1.048.987a.739.739,0,0,1-.9.064,2.16,2.16,0,0,0-1.143-.327H14.3a1.112,1.112,0,0,0-1.052,1.161,1.15,1.15,0,0,0,.782,1.12l4.013,1.188a3.989,3.989,0,0,1,2.816,3.819A3.942,3.942,0,0,1,17.056,29.8Zm21.4-1.4a.709.709,0,0,1-.713.7H27.758a.709.709,0,0,1-.713-.7V27a.709.709,0,0,1,.713-.7h9.988a.709.709,0,0,1,.713.7Zm14.269,0a.709.709,0,0,1-.713.7H44.881a.709.709,0,0,1-.713-.7V27a.709.709,0,0,1,.713-.7h7.134a.709.709,0,0,1,.713.7Zm0-8.45a.709.709,0,0,1-.713.7H27.758a.709.709,0,0,1-.713-.7V18.547a.709.709,0,0,1,.713-.7H52.015a.709.709,0,0,1,.713.7Z" transform="translate(5.517 3.746)" fill="#ffd500"/>
</svg>
